<svg viewBox="0 0 32 32" xmlns="http://www.w3.org/2000/svg"><g transform="matrix(1.3333333333333333,0,0,1.3333333333333333,0,0)"><path d="M0.75 23.263L3.12 20.534" fill="none" stroke="#000000" stroke-linecap="round" stroke-linejoin="round" stroke-width="1.5"></path><path d="M23.25 23.263L20.88 20.534" fill="none" stroke="#000000" stroke-linecap="round" stroke-linejoin="round" stroke-width="1.5"></path><path d="M21.75,9.013c0,4.971-3.537,12.75-9.75,12.75S2.25,13.984,2.25,9.013,5.787.763,12,.763,21.75,4.042,21.75,9.013Z" fill="none" stroke="#000000" stroke-linecap="round" stroke-linejoin="round" stroke-width="1.5"></path><path d="M12,21.763A7.978,7.978,0,0,0,17.944,18.9c-.4-2.2-2.908-3.886-5.944-3.886S6.455,16.7,6.056,18.9A7.978,7.978,0,0,0,12,21.763Z" fill="none" stroke="#000000" stroke-linecap="round" stroke-linejoin="round" stroke-width="1.5"></path><path d="M15.75,5.263H8.25a2.25,2.25,0,0,0,0,4.5h7.5a2.25,2.25,0,0,0,0-4.5Z" fill="none" stroke="#000000" stroke-linecap="round" stroke-linejoin="round" stroke-width="1.5"></path></g></svg>